<svg xmlns="http://www.w3.org/2000/svg" viewBox="0 0 19.1 19.46"><defs><style>.cls-1{fill:#ee3c37;}</style></defs><g id="Layer_2" data-name="Layer 2"><g id="Layer_1-2" data-name="Layer 1"><path class="cls-1" d="M18.74,2.9A22.21,22.21,0,0,0,17,1.11c-1-1-1.51-1-2.5,0-.41.39-.81.79-1.21,1.19-.1.11-.21.2-.31.31a.4.4,0,0,1-.69,0l-.73-.78A10.09,10.09,0,0,0,9.66,0H.15A.62.62,0,0,0,0,.45c0,.1,0,.2,0,.29v17.9c0,.82,0,.82.79.82H14.38c.85,0,.85,0,.86-.85V17.06q0-4.17,0-8.34a1.44,1.44,0,0,1,.46-1.12c.91-.87,1.79-1.78,2.68-2.67a4.68,4.68,0,0,0,.43-.46A1.11,1.11,0,0,0,18.74,2.9ZM9.88,2.76l1.56,1.39c.06,0,.12.13,0,.2a4.2,4.2,0,0,1-.88.81c-.44.25-.72,0-.72-.51ZM10.17,12,7.05,13.22c-.36.14-.42-.27-.63-.41s-.28-.19-.17-.43c.43-1,.84-2.05,1.25-3.05Zm3.35,5.43c0,.37-.09.45-.45.45-3.66,0-7.31,0-11,0-.3,0-.41-.06-.41-.39q0-7.76,0-15.52c0-.29.07-.38.38-.38,2.08,0,4.17,0,6.25,0,.36,0,.39.13.38.42,0,1.23,0,2.46,0,3.68,0,.68,0,.68.66.77a1.71,1.71,0,0,1-1.62.86c-1.32-.07-2.65,0-4,0-.33,0-.39.09-.4.4s.12.4.42.39h4a4.46,4.46,0,0,0-1.37,2.28c-.08.19-.22.2-.39.2H3.86c-.3,0-.51,0-.5.42s.2.39.48.38H6c-.32.81-.63,1.55-.92,2.29-.06.15-.17.17-.31.17-.31,0-.62,0-.92,0s-.51,0-.5.41.2.38.48.38H9.37c.71,0,1.42,0,2.13,0,.31,0,.35-.13.33-.38s.05-.43-.32-.43c-1.33,0-2.66,0-4,0l0-.08c.89-.36,1.78-.74,2.67-1.08a2.39,2.39,0,0,0,.95-.64c.75-.77,1.52-1.54,2.27-2.29.19.1.12.23.12.33C13.52,12.48,13.51,14.94,13.52,17.4Z"/></g></g></svg>